name baseline.mot
datacolumns 19
datarows 33
range 9.97329300000000 10.02662500000000
endheader
time	ground_force1_vx	ground_force1_vy	ground_force1_vz	ground_force1_px	ground_force1_py	ground_force1_pz	ground_force2_vx	ground_force2_vy	ground_force2_vz	ground_force2_px	ground_force2_py	ground_force2_pz	ground_torque1_x	ground_torque1_y	ground_torque1_z	ground_torque2_x	ground_torque2_y	ground_torque2_z	
9.97329300000000	83.46300800000000	786.20266800000002	46.39947700000000	0.19212300000000	0.00000000000000	0.12301900000000	0.00000000000000	0.00000000000000	0.00000000000000	0.00000000000000	0.00000000000000	0.00000000000000	0.00000000000000	-1.95664100000000	0.00000000000000	0.00000000000000	0.00000000000000	0.00000000000000	
9.97496800000000	82.67001999999999	786.63102100000003	46.34351300000000	0.19120600000000	0.00000000000000	0.12299500000000	0.00000000000000	0.00000000000000	0.00000000000000	0.00000000000000	0.00000000000000	0.00000000000000	0.00000000000000	-1.89361700000000	0.00000000000000	0.00000000000000	0.00000000000000	0.00000000000000	
9.97663300000000	81.88355900000001	786.94998099999998	46.29825900000000	0.19028300000000	0.00000000000000	0.12297300000000	0.00000000000000	0.00000000000000	0.00000000000000	0.00000000000000	0.00000000000000	0.00000000000000	0.00000000000000	-1.82759000000000	0.00000000000000	0.00000000000000	0.00000000000000	0.00000000000000	
9.97829900000000	81.10314800000000	787.16088200000002	46.26318700000000	0.18935200000000	0.00000000000000	0.12295400000000	0.00000000000000	0.00000000000000	0.00000000000000	0.00000000000000	0.00000000000000	0.00000000000000	0.00000000000000	-1.75871400000000	0.00000000000000	0.00000000000000	0.00000000000000	0.00000000000000	
9.97997500000000	80.32827399999999	787.26524800000004	46.23769800000000	0.18841200000000	0.00000000000000	0.12293700000000	0.00000000000000	0.00000000000000	0.00000000000000	0.00000000000000	0.00000000000000	0.00000000000000	0.00000000000000	-1.68715400000000	0.00000000000000	0.00000000000000	0.00000000000000	0.00000000000000	
9.98163000000000	79.55839600000000	787.26478299999997	46.22112800000000	0.18746200000000	0.00000000000000	0.12292300000000	0.00000000000000	0.00000000000000	0.00000000000000	0.00000000000000	0.00000000000000	0.00000000000000	0.00000000000000	-1.61309000000000	0.00000000000000	0.00000000000000	0.00000000000000	0.00000000000000	
9.98329600000000	78.79295000000000	787.16137800000001	46.21275600000000	0.18649900000000	0.00000000000000	0.12291100000000	0.00000000000000	0.00000000000000	0.00000000000000	0.00000000000000	0.00000000000000	0.00000000000000	0.00000000000000	-1.53670900000000	0.00000000000000	0.00000000000000	0.00000000000000	0.00000000000000	
9.98495800000000	78.03135700000000	786.95709999999997	46.21180800000000	0.18552400000000	0.00000000000000	0.12290200000000	0.00000000000000	0.00000000000000	0.00000000000000	0.00000000000000	0.00000000000000	0.00000000000000	0.00000000000000	-1.45820900000000	0.00000000000000	0.00000000000000	0.00000000000000	0.00000000000000	
9.98663000000000	77.27302700000000	786.65419299999996	46.21746300000000	0.18453500000000	0.00000000000000	0.12289500000000	0.00000000000000	0.00000000000000	0.00000000000000	0.00000000000000	0.00000000000000	0.00000000000000	0.00000000000000	-1.37779300000000	0.00000000000000	0.00000000000000	0.00000000000000	0.00000000000000	
9.98829300000000	76.51736900000000	786.25507000000005	46.22886100000000	0.18353100000000	0.00000000000000	0.12289100000000	0.00000000000000	0.00000000000000	0.00000000000000	0.00000000000000	0.00000000000000	0.00000000000000	0.00000000000000	-1.29567400000000	0.00000000000000	0.00000000000000	0.00000000000000	0.00000000000000	
9.98997600000000	75.76379100000000	785.76230899999996	46.24510600000000	0.18251200000000	0.00000000000000	0.12288900000000	0.00000000000000	0.00000000000000	0.00000000000000	0.00000000000000	0.00000000000000	0.00000000000000	0.00000000000000	-1.21206500000000	0.00000000000000	0.00000000000000	0.00000000000000	0.00000000000000	
9.99162600000000	75.01170999999999	785.17864899999995	46.26527800000000	0.18147700000000	0.00000000000000	0.12288900000000	0.00000000000000	0.00000000000000	0.00000000000000	0.00000000000000	0.00000000000000	0.00000000000000	0.00000000000000	-1.12718600000000	0.00000000000000	0.00000000000000	0.00000000000000	0.00000000000000	
9.99329300000000	74.26055800000000	784.50697800000000	46.28843300000000	0.18042500000000	0.00000000000000	0.12289100000000	0.00000000000000	0.00000000000000	0.00000000000000	0.00000000000000	0.00000000000000	0.00000000000000	0.00000000000000	-1.04125600000000	0.00000000000000	0.00000000000000	0.00000000000000	0.00000000000000	
9.99496500000000	73.50978200000000	783.75033299999996	46.31361200000000	0.17935600000000	0.00000000000000	0.12289600000000	0.00000000000000	0.00000000000000	0.00000000000000	0.00000000000000	0.00000000000000	0.00000000000000	0.00000000000000	-0.95449600000000	0.00000000000000	0.00000000000000	0.00000000000000	0.00000000000000	
9.99663400000000	72.75885300000000	782.91188399999999	46.33985000000000	0.17827000000000	0.00000000000000	0.12290200000000	0.00000000000000	0.00000000000000	0.00000000000000	0.00000000000000	0.00000000000000	0.00000000000000	0.00000000000000	-0.86712500000000	0.00000000000000	0.00000000000000	0.00000000000000	0.00000000000000	
9.99829600000000	72.00727100000000	781.99493399999994	46.36617700000000	0.17716700000000	0.00000000000000	0.12290900000000	0.00000000000000	0.00000000000000	0.00000000000000	0.00000000000000	0.00000000000000	0.00000000000000	0.00000000000000	-0.77935900000000	0.00000000000000	0.00000000000000	0.00000000000000	0.00000000000000	
9.99995800000000	71.25456300000000	781.00290199999995	46.39162800000000	0.17604600000000	0.00000000000000	0.12291900000000	0.00000000000000	0.00000000000000	0.00000000000000	0.00000000000000	0.00000000000000	0.00000000000000	0.00000000000000	-0.69141100000000	0.00000000000000	0.00000000000000	0.00000000000000	0.00000000000000	
10.00162500000000	70.50029499999999	779.93932099999995	46.41524800000000	0.17490800000000	0.00000000000000	0.12293000000000	0.00000000000000	0.00000000000000	0.00000000000000	0.00000000000000	0.00000000000000	0.00000000000000	0.00000000000000	-0.60348800000000	0.00000000000000	0.00000000000000	0.00000000000000	0.00000000000000	
10.00329300000000	69.74406700000000	778.80782399999998	46.43609600000000	0.17375300000000	0.00000000000000	0.12294200000000	0.00000000000000	0.00000000000000	0.00000000000000	0.00000000000000	0.00000000000000	0.00000000000000	0.00000000000000	-0.51579100000000	0.00000000000000	0.00000000000000	0.00000000000000	0.00000000000000	
10.00497100000000	68.98552300000000	777.61213699999996	46.45325500000000	0.17258200000000	0.00000000000000	0.12295600000000	0.00000000000000	0.00000000000000	0.00000000000000	0.00000000000000	0.00000000000000	0.00000000000000	0.00000000000000	-0.42851200000000	0.00000000000000	0.00000000000000	0.00000000000000	0.00000000000000	
10.00662800000000	68.22434699999999	776.35606600000006	46.46583300000000	0.17139400000000	0.00000000000000	0.12297100000000	0.00000000000000	0.00000000000000	0.00000000000000	0.00000000000000	0.00000000000000	0.00000000000000	0.00000000000000	-0.34183700000000	0.00000000000000	0.00000000000000	0.00000000000000	0.00000000000000	
10.00829400000000	67.46027200000000	775.04349000000002	46.47296800000000	0.17019100000000	0.00000000000000	0.12298600000000	0.00000000000000	0.00000000000000	0.00000000000000	0.00000000000000	0.00000000000000	0.00000000000000	0.00000000000000	-0.25594200000000	0.00000000000000	0.00000000000000	0.00000000000000	0.00000000000000	
10.00997900000000	66.69307499999999	773.67834700000003	46.47383800000000	0.16897200000000	0.00000000000000	0.12300300000000	0.00000000000000	0.00000000000000	0.00000000000000	0.00000000000000	0.00000000000000	0.00000000000000	0.00000000000000	-0.17099100000000	0.00000000000000	0.00000000000000	0.00000000000000	0.00000000000000	
10.01162500000000	65.92258099999999	772.26462800000002	46.46766000000000	0.16774000000000	0.00000000000000	0.12302000000000	0.00000000000000	0.00000000000000	0.00000000000000	0.00000000000000	0.00000000000000	0.00000000000000	0.00000000000000	-0.08713800000000	0.00000000000000	0.00000000000000	0.00000000000000	0.00000000000000	
10.01329600000000	65.14866800000000	770.80636000000004	46.45369500000000	0.16649500000000	0.00000000000000	0.12303700000000	0.00000000000000	0.00000000000000	0.00000000000000	0.00000000000000	0.00000000000000	0.00000000000000	0.00000000000000	-0.00452800000000	0.00000000000000	0.00000000000000	0.00000000000000	0.00000000000000	
10.01496500000000	64.37125800000000	769.30760199999997	46.43125800000000	0.16523800000000	0.00000000000000	0.12305500000000	0.00000000000000	0.00000000000000	0.00000000000000	0.00000000000000	0.00000000000000	0.00000000000000	0.00000000000000	0.07670900000000	0.00000000000000	0.00000000000000	0.00000000000000	0.00000000000000	
10.01662400000000	63.59032800000000	767.77243199999998	46.39971100000000	0.16396900000000	0.00000000000000	0.12307300000000	0.00000000000000	0.00000000000000	0.00000000000000	0.00000000000000	0.00000000000000	0.00000000000000	0.00000000000000	0.15645300000000	0.00000000000000	0.00000000000000	0.00000000000000	0.00000000000000	
10.01829300000000	62.80590100000000	766.20493399999998	46.35847500000000	0.16269100000000	0.00000000000000	0.12309100000000	0.00000000000000	0.00000000000000	0.00000000000000	0.00000000000000	0.00000000000000	0.00000000000000	0.00000000000000	0.23459600000000	0.00000000000000	0.00000000000000	0.00000000000000	0.00000000000000	
10.01995700000000	62.01805000000000	764.60918900000001	46.30703000000000	0.16140400000000	0.00000000000000	0.12310900000000	0.00000000000000	0.00000000000000	0.00000000000000	0.00000000000000	0.00000000000000	0.00000000000000	0.00000000000000	0.31104500000000	0.00000000000000	0.00000000000000	0.00000000000000	0.00000000000000	
10.02163200000000	61.22689700000000	762.98926700000004	46.24491600000000	0.16011000000000	0.00000000000000	0.12312600000000	0.00000000000000	0.00000000000000	0.00000000000000	0.00000000000000	0.00000000000000	0.00000000000000	0.00000000000000	0.38571400000000	0.00000000000000	0.00000000000000	0.00000000000000	0.00000000000000	
10.02329100000000	60.43261000000000	761.34921499999996	46.17173700000000	0.15881000000000	0.00000000000000	0.12314400000000	0.00000000000000	0.00000000000000	0.00000000000000	0.00000000000000	0.00000000000000	0.00000000000000	0.00000000000000	0.45853400000000	0.00000000000000	0.00000000000000	0.00000000000000	0.00000000000000	
10.02497300000000	59.63540000000000	759.69304599999998	46.08715800000000	0.15750500000000	0.00000000000000	0.12316000000000	0.00000000000000	0.00000000000000	0.00000000000000	0.00000000000000	0.00000000000000	0.00000000000000	0.00000000000000	0.52944600000000	0.00000000000000	0.00000000000000	0.00000000000000	0.00000000000000	
10.02662500000000	58.83552400000000	758.02472899999998	45.99091500000000	0.15619700000000	0.00000000000000	0.12317600000000	0.00000000000000	0.00000000000000	0.00000000000000	0.00000000000000	0.00000000000000	0.00000000000000	0.00000000000000	0.59840000000000	0.00000000000000	0.00000000000000	0.00000000000000	0.00000000000000	
